<svg xmlns="http://www.w3.org/2000/svg" width="1368" height="766" viewBox="0 0 1368 766">
<g>
<path d="M 19.25 683.30 C29.84,683.49 42.33,683.44 47.00,683.20 C51.67,682.96 81.60,682.89 113.50,683.03 C145.40,683.18 174.43,683.30 178.00,683.30 C188.04,683.31 266.05,683.12 270.00,683.09 C279.88,682.99 379.90,682.91 458.50,682.93 C507.45,682.94 548.85,682.93 550.50,682.90 C565.18,682.63 713.92,682.78 722.00,683.07 C727.78,683.28 734.53,683.40 737.00,683.35 C740.77,683.27 770.65,683.21 793.50,683.24 C796.80,683.24 810.53,683.16 824.00,683.05 C871.23,682.67 930.57,682.67 937.50,683.05 C941.35,683.26 947.42,683.38 951.00,683.32 C962.50,683.11 1011.89,682.82 1032.50,682.84 C1066.77,682.87 1113.46,682.89 1139.00,682.89 C1191.27,682.90 1307.97,683.15 1337.25,683.32 L 1368.00 683.50 L 1368.00 341.75 L 1368.00 0.00 L 1368.00 766.00 L 0.00 766.00 L 0.00 682.96 Z" fill="rgb(4,12,22)"/>
<path d="M 1161.69 522.36 C1161.94,522.61 1163.35,522.62 1164.82,522.40 C1166.29,522.18 1212.61,522.02 1267.75,522.05 L 1368.00 522.10 L 1368.00 609.00 L 1343.14 609.00 L 1341.00 612.00 C1338.31,615.78 1336.69,615.78 1334.00,612.00 L 1331.86 609.00 L 1220.05 609.00 L 1218.41 611.50 C1216.97,613.69 1216.05,614.00 1211.00,614.00 C1205.94,614.00 1205.03,613.69 1203.58,611.49 L 1201.94 608.97 L 1166.23 609.24 L 1130.53 609.50 L 1129.16 612.35 C1127.83,615.13 1127.64,615.19 1122.15,614.53 C1117.81,614.01 1116.07,613.29 1114.67,611.43 L 1112.83 609.00 L 1069.17 609.00 L 1067.33 611.41 C1065.99,613.17 1064.13,614.00 1060.37,614.49 C1055.47,615.13 1055.15,615.02 1053.05,612.08 C1050.93,609.09 1050.64,609.00 1043.02,609.00 C1035.69,609.00 1035.04,609.18 1033.25,611.64 L 1031.33 614.27 L 1009.01 614.29 L 986.69 614.30 L 982.83 609.00 L 925.14 609.00 L 923.00 612.00 C921.19,614.55 920.21,615.00 916.50,615.00 C912.79,615.00 911.81,614.55 910.00,612.00 C907.92,609.07 907.66,609.00 899.45,609.00 C891.59,609.00 890.94,609.16 889.41,611.50 C887.28,614.75 883.72,614.75 881.59,611.50 C880.00,609.07 879.61,609.00 868.50,609.00 C857.55,609.00 856.98,609.10 855.49,611.38 C854.32,613.16 852.65,613.92 848.74,614.44 C843.75,615.10 843.45,615.00 840.92,611.90 C838.04,608.37 835.23,608.42 834.29,612.01 C833.54,614.86 829.60,614.57 827.59,611.50 C826.21,609.39 825.18,609.00 821.00,609.00 C816.82,609.00 815.79,609.39 814.41,611.50 C812.28,614.75 809.12,614.68 806.45,611.33 C803.94,608.19 801.46,608.65 799.99,612.53 L 799.01 615.11 L 786.82 614.66 C775.07,614.23 774.56,614.12 772.73,611.61 L 770.83 609.00 L 755.94 609.00 C741.16,609.00 741.03,609.02 739.41,611.50 C737.28,614.75 733.72,614.75 731.59,611.50 L 729.95 609.00 L 659.17 609.00 L 657.20 611.70 C655.32,614.27 654.83,614.40 646.56,614.40 C638.31,614.40 637.79,614.27 635.70,611.65 C633.59,609.01 633.19,608.91 625.50,609.20 C618.31,609.47 617.40,609.73 616.51,611.75 C615.64,613.73 614.79,614.00 609.38,614.00 C603.92,614.00 603.05,613.72 601.59,611.50 C600.00,609.08 599.61,609.00 588.55,609.00 L 577.14 609.00 L 575.00 612.00 C573.14,614.61 572.25,615.00 568.18,614.98 C563.08,614.97 562.06,614.51 560.40,611.50 C559.56,609.98 558.06,609.43 554.20,609.20 C549.68,608.93 548.92,609.19 547.44,611.45 C545.98,613.69 545.07,614.00 540.12,614.00 C535.22,614.00 534.34,613.70 533.49,611.75 C532.55,609.62 531.86,609.49 520.34,609.22 L 508.18 608.94 L 506.02 611.97 C503.91,614.93 503.67,615.00 495.49,615.00 C487.33,615.00 487.07,614.93 485.79,612.25 L 484.47 609.50 L 459.53 609.50 L 458.15 612.36 C456.83,615.12 456.58,615.20 451.64,614.57 C447.82,614.08 446.03,613.28 444.67,611.45 C442.30,608.29 440.64,608.35 438.20,611.70 C436.31,614.29 435.87,614.40 427.46,614.35 C419.16,614.30 418.59,614.15 416.76,611.65 C414.27,608.22 412.63,608.31 410.00,612.00 C407.91,614.93 407.66,615.00 399.41,615.00 C391.28,615.00 390.91,614.90 389.99,612.47 C388.54,608.65 386.04,608.21 383.55,611.33 C380.88,614.68 377.72,614.75 375.59,611.50 C374.07,609.18 373.38,609.00 366.06,609.00 C358.88,609.00 358.00,609.22 356.33,611.42 C354.62,613.68 353.66,613.88 341.86,614.53 L 329.22 615.23 L 327.85 612.36 L 326.47 609.50 L 279.49 608.78 C253.64,608.39 229.57,608.03 226.00,607.98 C222.43,607.93 216.69,608.18 213.26,608.53 C207.86,609.09 206.73,609.57 204.94,612.09 C203.21,614.52 202.17,615.00 198.68,614.98 C194.08,614.97 193.03,614.47 191.40,611.50 C190.56,609.98 189.06,609.43 185.20,609.20 C180.68,608.93 179.92,609.19 178.44,611.45 C176.85,613.88 176.33,614.00 167.50,614.00 C158.70,614.00 158.15,613.87 156.58,611.49 L 154.94 608.97 L 122.83 609.24 C91.90,609.49 90.68,609.57 89.61,611.50 C87.84,614.70 86.80,615.07 81.50,614.43 C77.84,613.98 76.01,613.17 74.67,611.41 C72.24,608.22 70.58,608.37 68.00,612.00 C66.19,614.55 65.21,615.00 61.50,615.00 C57.79,615.00 56.81,614.55 55.00,612.00 L 52.86 609.00 L 41.02 609.00 C29.27,609.00 29.15,609.02 27.19,611.72 L 25.20 614.44 L 0.00 613.98 L 0.00 521.99 L 580.62 521.95 C899.97,521.93 1161.45,522.11 1161.69,522.36 ZM 1368.00 457.44 L 690.75 457.64 C318.26,457.74 10.46,457.87 6.75,457.92 L 0.00 458.00 L 0.00 449.00 L 1368.00 449.00 Z" fill="rgb(7,37,64)"/>
<path d="M 1161.69 522.36 C1161.45,522.11 899.97,521.93 580.62,521.95 L 0.00 521.99 L 0.00 458.00 L 6.75 457.92 C10.46,457.87 318.26,457.74 690.75,457.64 L 1368.00 457.44 L 1368.00 522.10 L 1267.75 522.05 C1212.61,522.02 1166.29,522.18 1164.82,522.40 C1163.35,522.62 1161.94,522.61 1161.69,522.36 ZM 1368.00 390.00 L 1368.00 403.30 L 1067.25 403.16 C901.84,403.09 738.83,403.10 705.00,403.18 C671.17,403.27 534.38,403.31 401.00,403.26 C82.63,403.14 29.69,403.22 6.75,403.82 L 0.00 404.00 L 0.00 390.00 L 1368.00 390.00 L 1368.00 341.75 L 1368.00 339.00 L 0.00 339.00 L 0.00 331.00 L 485.75 331.25 C752.91,331.39 1009.75,331.39 1056.50,331.26 C1103.25,331.13 1192.46,331.02 1254.75,331.01 L 1368.00 331.00 L 1368.00 364.50 ZM 1368.00 272.00 L 1368.00 278.00 L 0.00 278.00 L 0.00 272.00 Z" fill="rgb(9,50,85)"/>
<path d="M 1368.00 403.30 L 1368.00 441.02 L 692.25 441.42 C320.59,441.64 12.79,441.86 8.25,441.91 L 0.00 442.00 L 0.00 437.50 L 684.04 437.50 C1367.50,437.50 1368.07,437.50 1367.79,435.50 C1367.50,433.52 1366.90,433.50 1305.50,433.92 C1271.40,434.14 1240.57,434.23 1237.00,434.11 C1222.65,433.63 1216.25,433.56 1211.00,433.84 C1198.37,434.51 1146.02,434.56 1130.50,433.91 C1127.20,433.78 1117.97,433.78 1110.00,433.91 C1102.03,434.04 1067.15,434.20 1032.50,434.27 C972.72,434.39 961.15,434.37 910.00,434.14 C898.17,434.08 882.88,434.13 876.00,434.23 C869.12,434.34 844.60,434.24 821.50,434.01 C798.40,433.79 771.62,433.69 762.00,433.80 C752.38,433.91 705.12,433.91 657.00,433.81 C571.80,433.62 556.94,433.64 531.00,434.00 C500.13,434.42 493.23,434.46 473.00,434.31 C461.17,434.23 448.80,434.18 445.50,434.21 C442.20,434.23 414.75,434.14 384.50,433.99 L 319.00 433.68 C313.23,433.65 303.33,433.81 297.00,434.02 C286.42,434.39 258.11,434.46 240.00,434.18 C235.88,434.11 229.80,434.14 226.50,434.24 C223.20,434.35 213.98,434.34 206.00,434.23 C198.02,434.11 185.65,434.12 178.50,434.24 C167.10,434.43 150.17,434.43 130.50,434.22 C127.20,434.19 96.49,433.84 62.25,433.46 L 0.00 432.76 L 0.00 404.00 L 6.75 403.82 C29.69,403.22 82.63,403.14 401.00,403.26 C534.38,403.31 671.17,403.27 705.00,403.18 C738.83,403.10 901.84,403.09 1067.25,403.16 ZM 1368.00 339.00 L 1368.00 341.75 L 1368.00 372.66 C1367.98,368.92 1367.60,366.13 1367.13,366.42 C1366.65,366.72 1215.78,366.96 1031.88,366.95 C772.09,366.94 413.63,367.11 349.50,367.27 C345.65,367.28 320.90,367.17 294.50,367.03 C239.80,366.73 94.27,366.70 13.75,366.96 L 0.00 367.00 L 0.00 339.00 L 1368.00 339.00 ZM 1368.00 278.00 L 1368.00 284.13 L 697.25 284.25 C328.34,284.31 20.54,284.57 13.25,284.81 L 0.00 285.26 L 0.00 278.00 ZM 1199.43 382.12 C1198.70,383.29 86.00,383.28 86.00,382.11 C86.00,381.62 87.46,380.96 89.25,380.64 C93.47,379.89 1187.85,379.90 1194.74,380.66 C1197.62,380.97 1199.73,381.63 1199.43,382.12 ZM 1368.00 380.00 L 1368.00 383.00 L 1284.50 383.00 C1236.27,383.00 1201.00,382.62 1201.00,382.11 C1201.00,381.62 1202.11,380.94 1203.47,380.60 C1204.83,380.26 1239.59,380.00 1280.72,380.03 C1321.85,380.06 1358.31,380.07 1361.75,380.04 ZM 0.00 382.50 L 0.00 380.00 L 4.75 380.09 C7.36,380.14 25.92,380.12 46.00,380.06 C68.29,379.99 83.07,380.32 83.97,380.92 C85.27,381.78 85.27,381.96 83.97,382.45 C83.16,382.75 63.94,382.89 41.25,382.75 Z" fill="rgb(10,68,117)"/>
<path d="M 1368.00 284.13 L 1368.00 311.21 L 684.00 311.07 L 0.00 310.93 L 0.00 285.26 L 13.25 284.81 C20.54,284.57 328.34,284.31 697.25,284.25 ZM 1199.43 382.12 C1199.73,381.63 1197.62,380.97 1194.74,380.66 C1187.85,379.90 93.47,379.89 89.25,380.64 C87.46,380.96 86.00,381.62 86.00,382.11 C86.00,382.29 112.35,382.44 156.94,382.57 L 83.18 382.53 C83.62,382.51 83.89,382.48 83.97,382.45 C85.27,381.96 85.27,381.78 83.97,380.92 C83.07,380.32 68.29,379.99 46.00,380.06 C25.92,380.12 7.36,380.14 4.75,380.09 L 0.00 380.00 L 0.00 367.00 L 13.75 366.96 C94.27,366.70 239.80,366.73 294.50,367.03 C320.90,367.17 345.65,367.28 349.50,367.27 C413.63,367.11 772.09,366.94 1031.88,366.95 C1215.78,366.96 1366.65,366.72 1367.13,366.42 C1367.59,366.13 1367.98,368.91 1368.00,372.64 L 1368.00 372.66 L 1368.00 380.00 L 1361.75 380.04 C1358.31,380.07 1321.85,380.06 1280.72,380.03 C1239.59,380.00 1204.83,380.26 1203.47,380.60 C1202.11,380.94 1201.00,381.62 1201.00,382.11 C1201.00,382.62 1236.27,383.00 1284.50,383.00 L 1284.25 383.00 C1254.29,383.00 1113.60,382.95 928.05,382.88 C1084.13,382.75 1199.19,382.49 1199.43,382.12 ZM 0.00 437.50 L 0.00 432.76 L 62.25 433.46 C96.49,433.84 127.20,434.19 130.50,434.22 C150.17,434.43 167.10,434.43 178.50,434.24 C185.65,434.12 198.02,434.11 206.00,434.23 C213.98,434.34 223.20,434.35 226.50,434.24 C229.80,434.14 235.88,434.11 240.00,434.18 C258.11,434.46 286.42,434.39 297.00,434.02 C303.33,433.81 313.23,433.65 319.00,433.68 L 384.50 433.99 C414.75,434.14 442.20,434.23 445.50,434.21 C448.80,434.18 461.17,434.23 473.00,434.31 C493.23,434.46 500.13,434.42 531.00,434.00 C556.94,433.64 571.80,433.62 657.00,433.81 C705.12,433.91 752.38,433.91 762.00,433.80 C771.62,433.69 798.40,433.79 821.50,434.01 C844.60,434.24 869.12,434.34 876.00,434.23 C882.88,434.13 898.17,434.08 910.00,434.14 C961.15,434.37 972.72,434.39 1032.50,434.27 C1067.15,434.20 1102.03,434.04 1110.00,433.91 C1117.97,433.78 1127.20,433.78 1130.50,433.91 C1146.02,434.56 1198.37,434.51 1211.00,433.84 C1216.25,433.56 1222.65,433.63 1237.00,434.11 C1240.57,434.23 1271.40,434.14 1305.50,433.92 C1366.90,433.50 1367.50,433.52 1367.79,435.50 C1368.07,437.50 1367.50,437.50 684.04,437.50 Z" fill="rgb(11,83,145)"/>
<path d="M 941.53 159.09 C942.21,161.23 944.69,161.03 951.12,158.33 C954.38,156.96 955.04,156.97 957.82,158.41 C959.51,159.28 962.52,160.00 964.50,160.00 C966.48,160.00 969.49,159.28 971.18,158.41 C973.96,156.97 974.62,156.96 977.88,158.33 C983.02,160.50 987.00,161.23 987.00,160.01 C987.00,159.45 988.12,158.01 989.50,156.81 C990.88,155.62 992.00,154.10 992.00,153.44 C992.00,150.61 994.70,149.85 999.67,151.29 C1003.67,152.46 1004.55,153.14 1004.81,155.28 C1005.50,161.00 1010.33,161.36 1011.77,155.80 C1012.58,152.64 1012.84,152.49 1017.99,152.19 C1021.68,151.98 1024.38,152.43 1026.59,153.62 C1029.61,155.25 1029.97,155.25 1032.37,153.68 C1035.96,151.33 1038.50,151.59 1040.41,154.50 C1042.66,157.94 1050.10,158.12 1052.42,154.81 C1054.19,152.29 1063.77,149.37 1065.29,150.89 C1065.81,151.41 1066.76,152.88 1067.40,154.17 C1068.40,156.18 1069.30,156.50 1073.95,156.50 C1078.90,156.50 1079.47,156.26 1080.99,153.50 C1082.41,150.93 1083.32,150.46 1087.27,150.20 C1091.29,149.93 1092.10,150.23 1093.56,152.45 C1094.48,153.85 1095.93,155.00 1096.79,155.00 C1097.65,155.00 1099.90,155.56 1101.78,156.24 C1105.01,157.40 1105.34,157.32 1107.39,154.74 C1109.31,152.33 1110.26,152.00 1115.25,152.00 C1119.91,152.00 1121.12,152.36 1122.00,154.00 C1123.61,157.00 1127.61,156.59 1129.22,153.25 C1130.40,150.83 1131.03,150.54 1134.53,150.84 C1136.71,151.02 1138.89,151.55 1139.38,152.01 C1139.86,152.48 1141.33,152.44 1142.66,151.94 C1143.98,151.44 1146.06,151.01 1147.28,150.99 C1148.50,150.97 1151.82,150.70 1154.65,150.39 C1158.47,149.97 1160.44,150.24 1162.30,151.46 C1164.18,152.69 1166.00,152.94 1169.71,152.44 C1174.25,151.84 1174.77,151.99 1176.34,154.40 C1177.86,156.72 1178.69,157.00 1184.02,157.00 C1189.65,157.00 1190.00,156.86 1190.00,154.62 C1190.00,150.63 1192.49,149.39 1196.58,151.34 C1198.50,152.25 1200.59,153.00 1201.22,153.00 C1201.85,153.00 1203.41,153.97 1204.67,155.16 C1206.80,157.16 1207.28,157.23 1210.94,156.02 C1214.21,154.94 1215.45,154.95 1218.09,156.04 C1221.06,157.27 1221.43,157.19 1223.24,154.96 C1225.43,152.25 1234.75,149.35 1236.29,150.89 C1236.81,151.41 1237.75,152.88 1238.39,154.17 C1239.66,156.72 1243.59,157.81 1245.32,156.08 C1245.91,155.49 1247.38,155.00 1248.58,155.00 C1249.78,155.00 1251.32,154.32 1252.00,153.50 C1253.56,151.63 1257.65,151.59 1263.22,153.39 C1271.27,156.00 1273.51,156.37 1282.02,156.49 C1288.49,156.58 1291.33,157.08 1293.81,158.55 C1297.54,160.75 1299.05,159.69 1298.23,155.44 C1297.80,153.19 1298.07,153.00 1301.68,153.00 C1303.84,153.00 1306.03,152.57 1306.55,152.05 C1307.07,151.53 1309.96,150.97 1312.96,150.80 C1318.08,150.52 1318.50,150.67 1319.80,153.31 C1321.72,157.26 1323.92,157.82 1326.25,154.94 C1328.33,152.37 1337.38,149.47 1339.34,150.75 C1339.98,151.16 1346.69,151.73 1354.25,152.00 L 1368.00 152.50 L 1368.00 254.00 L 1341.25 253.90 C1326.54,253.85 1041.80,253.85 708.50,253.90 C375.20,253.95 79.44,254.00 51.25,254.00 L 0.00 254.00 L 0.00 74.50 C0.00,119.68 0.37,149.00 0.93,149.00 C1.44,149.00 2.57,149.72 3.45,150.59 C4.84,151.98 6.50,152.65 9.27,152.92 C9.69,152.97 9.76,154.10 9.42,155.44 C8.32,159.83 9.79,160.00 17.27,156.34 C17.99,155.99 18.67,155.65 19.32,155.34 C27.94,151.12 29.89,150.16 31.66,150.42 C32.31,150.52 32.94,150.78 33.86,151.10 C36.39,151.98 38.12,151.98 41.09,151.09 C43.83,150.27 45.56,150.23 46.93,150.96 C48.00,151.53 51.19,152.00 54.03,152.00 C57.07,152.00 60.36,152.69 62.04,153.68 C64.39,155.07 65.36,155.16 67.49,154.18 C71.23,152.48 73.06,152.71 75.71,155.19 C77.79,157.15 78.39,157.26 81.35,156.19 C83.36,155.46 86.56,155.25 89.48,155.65 C93.16,156.16 94.56,155.96 95.40,154.82 C97.06,152.57 105.86,151.67 109.50,153.37 C111.15,154.14 114.23,155.32 116.35,155.99 C120.50,157.30 121.37,156.90 123.39,152.83 C124.85,149.89 130.21,149.33 138.00,151.31 C142.71,152.52 143.54,153.08 143.81,155.28 C144.51,161.14 149.31,161.07 150.71,155.17 C151.79,150.60 154.83,150.15 156.81,154.29 C158.14,157.07 158.16,157.07 167.24,156.79 C176.19,156.50 176.37,156.45 178.02,153.50 C179.32,151.19 180.25,150.60 182.10,150.92 C183.42,151.15 195.00,151.42 207.84,151.52 L 231.19 151.70 L 233.59 154.60 L 236.00 157.50 L 238.29 154.75 C241.13,151.33 244.27,151.23 246.41,154.50 C248.39,157.52 250.09,157.66 252.50,155.00 C253.50,153.90 254.90,153.00 255.62,153.00 C256.34,153.00 258.50,152.25 260.42,151.34 C264.48,149.40 266.39,150.35 267.35,154.77 C267.68,156.27 268.40,158.18 268.94,159.00 C270.39,161.17 273.37,159.05 274.01,155.39 C274.41,153.11 275.05,152.50 277.01,152.50 C278.97,152.50 279.57,153.07 279.81,155.18 C280.49,161.07 285.96,161.31 287.00,155.50 C287.43,153.13 288.25,152.52 292.50,151.40 C298.73,149.76 305.71,149.65 309.93,151.12 C312.35,151.97 313.80,151.96 315.73,151.08 C317.52,150.26 318.62,150.22 319.35,150.95 C319.93,151.53 321.64,152.00 323.16,152.00 C324.68,152.00 326.73,152.84 327.71,153.87 C328.69,154.90 331.68,156.06 334.35,156.45 C338.60,157.07 339.52,156.86 341.68,154.83 C344.01,152.64 345.07,152.48 359.40,152.15 L 374.64 151.79 L 376.34 154.40 C378.39,157.52 380.07,157.68 382.50,155.00 C384.84,152.41 387.80,152.46 390.63,155.13 C393.29,157.62 395.65,157.06 396.95,153.62 C398.12,150.55 399.86,149.46 401.29,150.89 C401.90,151.50 403.40,152.00 404.63,152.00 C405.85,152.00 407.53,152.68 408.36,153.50 C410.26,155.41 411.63,155.41 412.36,153.50 C412.77,152.45 414.41,152.00 417.85,152.00 C422.04,152.00 423.02,152.38 424.47,154.59 C426.02,156.96 426.60,157.13 431.33,156.67 C434.17,156.39 438.04,155.83 439.93,155.44 C442.90,154.82 443.65,155.08 445.48,157.37 L 447.60 160.03 L 453.55 157.58 C456.82,156.23 460.71,154.87 462.18,154.56 C463.72,154.24 465.15,153.09 465.53,151.89 C466.10,150.10 466.66,149.90 469.35,150.58 C472.36,151.33 476.65,151.40 481.95,150.78 C483.72,150.58 484.75,151.19 485.66,153.00 C486.35,154.38 487.84,156.25 488.96,157.16 C490.86,158.70 491.35,158.68 496.43,156.85 C504.03,154.12 513.09,154.57 514.49,157.75 C515.74,160.62 517.26,160.62 518.51,157.75 C519.37,155.80 520.37,155.46 526.00,155.20 C531.67,154.93 532.78,154.55 534.68,152.20 C537.03,149.28 538.15,149.66 540.39,154.17 C541.54,156.46 541.88,156.51 560.53,157.00 C573.02,157.33 580.25,157.93 581.68,158.75 C582.89,159.44 585.82,160.00 588.20,160.00 C591.73,160.00 592.71,159.58 593.51,157.75 C594.34,155.86 595.14,155.55 598.50,155.82 C600.70,156.00 609.51,156.36 618.07,156.62 L 633.64 157.09 L 634.83 154.47 C636.41,151.02 638.57,151.86 638.25,155.80 C637.93,159.81 639.20,160.47 643.40,158.48 C646.55,156.99 647.07,156.98 649.94,158.47 C653.65,160.39 654.57,159.96 656.46,155.43 C658.19,151.29 661.05,150.91 663.41,154.50 C665.00,156.92 665.39,157.00 676.38,157.00 C692.39,157.00 696.95,156.25 698.02,153.45 C699.34,149.97 700.92,149.58 703.58,152.08 C706.78,155.08 712.39,156.97 718.19,156.98 C720.77,156.99 723.13,157.40 723.43,157.88 C724.24,159.21 727.92,159.94 728.56,158.90 C728.87,158.40 727.97,157.56 726.56,157.02 C723.45,155.84 723.13,152.41 726.05,151.48 C728.31,150.77 731.00,152.47 731.00,154.62 C731.00,155.53 732.19,156.00 734.45,156.00 C737.21,156.00 738.15,155.46 739.23,153.25 C740.23,151.20 741.20,150.57 743.03,150.76 C744.39,150.91 749.74,151.45 754.91,151.98 C764.75,152.97 765.59,153.30 766.15,156.39 C766.34,157.43 767.27,158.77 768.21,159.36 C769.58,160.23 770.50,159.90 772.77,157.72 C776.27,154.36 776.72,154.36 780.13,157.62 L 782.87 160.25 L 785.57 158.12 C787.05,156.96 789.05,156.00 790.01,156.00 C790.97,156.00 792.37,155.09 793.13,153.97 C794.33,152.19 795.66,151.92 803.93,151.80 C812.58,151.68 813.49,151.85 814.81,153.83 C816.63,156.59 821.00,156.79 821.00,154.12 C821.00,150.85 823.45,149.66 827.46,150.99 C830.13,151.87 831.85,151.87 834.45,151.02 C836.91,150.20 838.47,150.18 839.89,150.94 C840.98,151.52 846.12,152.00 851.32,152.00 C860.30,152.00 860.85,152.13 862.41,154.50 C864.51,157.70 866.51,157.67 868.66,154.40 C870.12,152.18 870.87,151.88 873.87,152.37 C875.80,152.68 877.96,152.45 878.67,151.86 C880.52,150.33 882.86,151.51 884.02,154.55 C885.20,157.66 888.35,157.53 888.80,154.35 C889.08,152.44 889.76,152.22 895.49,152.19 C899.84,152.16 902.26,152.61 903.06,153.58 C904.61,155.44 908.42,155.40 910.00,153.50 C910.82,152.51 913.06,152.00 916.59,152.00 C921.01,152.00 922.13,152.37 923.07,154.13 C924.08,156.02 924.78,156.18 929.47,155.63 C935.62,154.91 940.66,156.35 941.53,159.09 ZM 1368.00 311.21 L 1368.00 323.00 L 0.00 323.00 L 0.00 310.93 L 684.00 311.07 ZM 1158.67 159.33 C1159.82,160.48 1161.00,160.06 1161.00,158.50 C1161.00,157.68 1160.32,157.00 1159.50,157.00 C1157.94,157.00 1157.52,158.18 1158.67,159.33 ZM 214.00 158.58 C214.00,159.45 214.53,159.99 215.19,159.77 C217.04,159.15 217.35,157.00 215.58,157.00 C214.71,157.00 214.00,157.71 214.00,158.58 Z" fill="rgb(13,104,179)"/>
<path d="M 941.53 159.09 C940.66,156.35 935.62,154.91 929.47,155.63 C924.78,156.18 924.08,156.02 923.07,154.13 C922.13,152.37 921.01,152.00 916.59,152.00 C913.06,152.00 910.82,152.51 910.00,153.50 C908.42,155.40 904.61,155.44 903.06,153.58 C902.26,152.61 899.84,152.16 895.49,152.19 C889.76,152.22 889.08,152.44 888.80,154.35 C888.35,157.53 885.20,157.66 884.02,154.55 C882.86,151.51 880.52,150.33 878.67,151.86 C877.96,152.45 875.80,152.68 873.87,152.37 C870.87,151.88 870.12,152.18 868.66,154.40 C866.51,157.67 864.51,157.70 862.41,154.50 C860.85,152.13 860.30,152.00 851.32,152.00 C846.12,152.00 840.98,151.52 839.89,150.94 C838.47,150.18 836.91,150.20 834.45,151.02 C831.85,151.87 830.13,151.87 827.46,150.99 C823.45,149.66 821.00,150.85 821.00,154.12 C821.00,156.79 816.63,156.59 814.81,153.83 C813.49,151.85 812.58,151.68 803.93,151.80 C795.66,151.92 794.33,152.19 793.13,153.97 C792.37,155.09 790.97,156.00 790.01,156.00 C789.05,156.00 787.05,156.96 785.57,158.12 L 782.87 160.25 L 780.13 157.62 C776.72,154.36 776.27,154.36 772.77,157.72 C770.50,159.90 769.58,160.23 768.21,159.36 C767.27,158.77 766.34,157.43 766.15,156.39 C765.59,153.30 764.75,152.97 754.91,151.98 C749.74,151.45 744.39,150.91 743.03,150.76 C741.20,150.57 740.23,151.20 739.23,153.25 C738.15,155.46 737.21,156.00 734.45,156.00 C732.19,156.00 731.00,155.53 731.00,154.62 C731.00,152.47 728.31,150.77 726.05,151.48 C723.13,152.41 723.45,155.84 726.56,157.02 C727.97,157.56 728.87,158.40 728.56,158.90 C727.92,159.94 724.24,159.21 723.43,157.88 C723.13,157.40 720.77,156.99 718.19,156.98 C712.39,156.97 706.78,155.08 703.58,152.08 C700.92,149.58 699.34,149.97 698.02,153.45 C696.95,156.25 692.39,157.00 676.38,157.00 C665.39,157.00 665.00,156.92 663.41,154.50 C661.05,150.91 658.19,151.29 656.46,155.43 C654.57,159.96 653.65,160.39 649.94,158.47 C647.07,156.98 646.55,156.99 643.40,158.48 C639.20,160.47 637.93,159.81 638.25,155.80 C638.57,151.86 636.41,151.02 634.83,154.47 L 633.64 157.09 L 618.07 156.62 C609.51,156.36 600.70,156.00 598.50,155.82 C595.14,155.55 594.34,155.86 593.51,157.75 C592.71,159.58 591.73,160.00 588.20,160.00 C585.82,160.00 582.89,159.44 581.68,158.75 C580.25,157.93 573.02,157.33 560.53,157.00 C541.88,156.51 541.54,156.46 540.39,154.17 C538.15,149.66 537.03,149.28 534.68,152.20 C532.78,154.55 531.67,154.93 526.00,155.20 C520.37,155.46 519.37,155.80 518.51,157.75 C517.26,160.62 515.74,160.62 514.49,157.75 C513.09,154.57 504.03,154.12 496.43,156.85 C491.35,158.68 490.86,158.70 488.96,157.16 C487.84,156.25 486.35,154.38 485.66,153.00 C484.75,151.19 483.72,150.58 481.95,150.78 C476.65,151.40 472.36,151.33 469.35,150.58 C466.66,149.90 466.10,150.10 465.53,151.89 C465.15,153.09 463.72,154.24 462.18,154.56 C460.71,154.87 456.82,156.23 453.55,157.58 L 447.60 160.03 L 445.48 157.37 C443.65,155.08 442.90,154.82 439.93,155.44 C438.04,155.83 434.17,156.39 431.33,156.67 C426.60,157.13 426.02,156.96 424.47,154.59 C423.02,152.38 422.04,152.00 417.85,152.00 C414.41,152.00 412.77,152.45 412.36,153.50 C411.63,155.41 410.26,155.41 408.36,153.50 C407.53,152.68 405.85,152.00 404.63,152.00 C403.40,152.00 401.90,151.50 401.29,150.89 C399.86,149.46 398.12,150.55 396.95,153.62 C395.65,157.06 393.29,157.62 390.63,155.13 C387.80,152.46 384.84,152.41 382.50,155.00 C380.07,157.68 378.39,157.52 376.34,154.40 L 374.64 151.79 L 359.40 152.15 C345.07,152.48 344.01,152.64 341.68,154.83 C339.52,156.86 338.60,157.07 334.35,156.45 C331.68,156.06 328.69,154.90 327.71,153.87 C326.73,152.84 324.68,152.00 323.16,152.00 C321.64,152.00 319.93,151.53 319.35,150.95 C318.62,150.22 317.52,150.26 315.73,151.08 C313.80,151.96 312.35,151.97 309.93,151.12 C305.71,149.65 298.73,149.76 292.50,151.40 C288.25,152.52 287.43,153.13 287.00,155.50 C285.96,161.31 280.49,161.07 279.81,155.18 C279.57,153.07 278.97,152.50 277.01,152.50 C275.05,152.50 274.41,153.11 274.01,155.39 C273.37,159.05 270.39,161.17 268.94,159.00 C268.40,158.18 267.68,156.27 267.35,154.77 C266.39,150.35 264.48,149.40 260.42,151.34 C258.50,152.25 256.34,153.00 255.62,153.00 C254.90,153.00 253.50,153.90 252.50,155.00 C250.09,157.66 248.39,157.52 246.41,154.50 C244.27,151.23 241.13,151.33 238.29,154.75 L 236.00 157.50 L 233.59 154.60 L 231.19 151.70 L 207.84 151.52 C195.00,151.42 183.42,151.15 182.10,150.92 C180.25,150.60 179.32,151.19 178.02,153.50 C176.37,156.45 176.19,156.50 167.24,156.79 C158.16,157.07 158.14,157.07 156.81,154.29 C154.83,150.15 151.79,150.60 150.71,155.17 C149.31,161.07 144.51,161.14 143.81,155.28 C143.54,153.08 142.71,152.52 138.00,151.31 C130.21,149.33 124.85,149.89 123.39,152.83 C121.37,156.90 120.50,157.30 116.35,155.99 C114.23,155.32 111.15,154.14 109.50,153.37 C105.86,151.67 97.06,152.57 95.40,154.82 C94.56,155.96 93.16,156.16 89.48,155.65 C86.56,155.25 83.36,155.46 81.35,156.19 C78.39,157.26 77.79,157.15 75.71,155.19 C73.06,152.71 71.23,152.48 67.49,154.18 C65.36,155.16 64.39,155.07 62.04,153.68 C60.36,152.69 57.07,152.00 54.03,152.00 C51.19,152.00 48.00,151.53 46.93,150.96 C45.56,150.23 43.83,150.27 41.09,151.09 C38.12,151.98 36.39,151.98 33.86,151.10 C32.94,150.78 32.31,150.52 31.66,150.42 C29.89,150.16 27.94,151.12 19.32,155.34 C18.67,155.65 17.99,155.99 17.27,156.34 C9.79,160.00 8.32,159.83 9.42,155.44 C9.76,154.10 9.69,152.97 9.27,152.92 C6.50,152.65 4.84,151.98 3.45,150.59 C2.57,149.72 1.44,149.00 0.93,149.00 C0.37,149.00 0.00,119.68 0.00,74.50 L 0.00 35.00 C0.00,54.25 0.34,70.03 0.75,70.08 C1.16,70.12 6.45,70.11 12.50,70.06 C18.55,70.01 24.62,69.98 26.00,70.00 C27.38,70.02 30.88,70.03 33.79,70.03 C37.67,70.02 39.23,70.44 39.67,71.59 C40.16,72.86 40.44,72.91 41.12,71.83 C41.74,70.86 41.97,71.05 41.98,72.56 C41.99,73.69 42.59,75.43 43.32,76.42 C44.58,78.15 44.81,78.14 48.82,76.09 C51.60,74.67 53.00,73.30 53.00,71.98 C53.00,68.93 54.98,69.64 55.15,72.75 L 55.30 75.50 L 55.71 72.86 L 56.11 70.21 L 157.45 70.36 C252.44,70.49 258.91,70.61 260.72,72.25 C263.22,74.51 264.44,74.46 266.13,72.03 C267.41,70.20 268.85,70.06 287.50,69.90 C308.27,69.73 325.77,70.67 327.51,72.05 C328.06,72.49 331.51,72.95 335.17,73.09 C340.34,73.27 342.20,72.95 343.53,71.61 C344.73,70.42 346.50,69.99 349.37,70.20 C353.36,70.49 353.49,70.61 353.25,73.75 C353.06,76.16 353.40,77.00 354.58,77.00 C355.81,77.00 356.02,76.35 355.52,74.07 C354.54,69.62 356.61,69.08 370.00,70.28 C379.28,71.11 381.75,71.67 382.81,73.16 C383.53,74.17 384.93,75.00 385.93,75.00 C388.80,75.00 390.62,77.77 389.23,80.01 C388.34,81.42 388.36,81.97 389.29,82.35 C392.02,83.46 394.04,82.87 395.59,80.50 C396.49,79.12 398.10,78.00 399.16,78.00 C400.23,78.00 402.44,77.31 404.08,76.46 C407.46,74.71 408.73,75.16 410.04,78.60 C411.62,82.75 416.23,81.25 419.55,75.50 C420.31,74.19 421.05,73.93 422.22,74.59 C423.11,75.09 427.08,75.35 431.04,75.16 C437.08,74.88 438.31,74.52 438.72,72.95 C438.99,71.91 439.95,70.83 440.86,70.55 C443.59,69.68 449.39,70.81 450.58,72.44 C451.19,73.28 451.97,73.70 452.30,73.36 C452.63,73.03 454.05,73.05 455.45,73.40 C457.47,73.91 458.00,74.66 458.00,77.02 C458.00,78.99 458.50,80.00 459.48,80.00 C460.66,80.00 460.84,79.09 460.34,75.50 C459.70,70.78 461.09,69.49 463.84,72.24 C464.83,73.23 465.24,73.22 465.87,72.21 C466.99,70.40 490.39,69.99 492.15,71.75 C493.70,73.30 498.22,73.38 499.70,71.90 C500.31,71.29 504.66,70.55 509.36,70.26 C517.73,69.73 517.94,69.78 519.05,72.21 C520.27,74.88 519.35,74.77 546.20,75.37 C552.42,75.51 553.66,76.23 554.17,80.00 C554.44,82.04 555.06,82.50 557.50,82.50 C560.23,82.50 560.53,82.17 560.81,78.83 C561.22,73.79 563.18,72.30 567.39,73.82 C572.09,75.52 574.69,75.29 575.26,73.11 C576.18,69.60 588.00,69.41 588.00,72.90 C588.00,73.35 589.03,73.53 590.29,73.29 C592.10,72.94 592.87,73.53 594.04,76.15 C595.12,78.60 596.40,79.67 599.00,80.31 C605.09,81.79 607.18,81.61 608.37,79.50 C610.78,75.23 614.57,74.74 616.00,78.50 C616.52,79.88 617.37,81.00 617.89,81.00 C620.39,81.00 622.00,79.56 622.00,77.33 C622.00,73.66 626.78,74.47 629.01,78.50 C631.09,82.28 633.87,82.34 635.92,78.65 C636.90,76.89 639.02,75.28 641.50,74.42 C646.16,72.80 654.60,72.55 655.50,74.00 C655.84,74.55 657.43,75.00 659.04,75.00 C661.04,75.00 662.46,75.78 663.59,77.50 C664.56,78.98 666.18,80.00 667.56,80.00 C669.58,80.00 669.93,79.44 670.19,75.75 L 670.50 71.50 L 676.76 71.20 C681.68,70.97 683.15,71.24 683.62,72.45 C684.45,74.61 689.66,74.41 691.60,72.16 C693.04,70.48 694.50,70.36 708.34,70.79 C717.89,71.09 723.77,71.68 724.23,72.38 C724.64,73.00 724.98,74.91 724.98,76.63 C724.99,78.35 725.71,80.35 726.58,81.07 C729.01,83.09 731.50,80.97 731.50,76.88 C731.50,73.60 731.62,73.50 735.50,73.50 C738.69,73.50 739.70,73.96 740.49,75.75 C741.64,78.39 742.59,78.56 744.64,76.50 C745.47,75.68 747.61,75.00 749.41,75.00 C751.96,75.00 752.94,74.43 753.87,72.39 C754.98,69.95 755.35,69.83 759.78,70.48 C762.38,70.87 764.95,71.54 765.50,71.97 C766.05,72.40 767.85,73.00 769.50,73.31 C771.15,73.62 773.80,74.20 775.39,74.58 C777.65,75.13 778.63,74.84 779.89,73.22 C780.91,71.90 783.23,70.90 786.24,70.46 L 786.44 70.43 C788.73,70.10 789.92,69.93 790.67,70.42 C791.52,70.98 791.81,72.38 792.46,75.36 C792.69,76.37 792.79,77.05 793.18,77.42 C793.95,78.16 795.83,77.73 801.86,76.36 C802.22,76.28 802.60,76.19 803.00,76.11 C810.32,74.45 818.74,74.72 819.82,76.64 C821.24,79.17 823.30,77.23 822.64,73.97 C822.01,70.80 823.19,70.00 828.53,70.00 C830.56,70.00 832.40,70.69 833.19,71.75 C834.14,73.02 835.95,73.51 839.74,73.54 C845.53,73.59 849.13,75.63 845.23,76.65 C842.25,77.43 842.35,80.00 845.37,80.00 C847.39,80.00 847.82,79.39 848.29,75.86 C848.60,73.58 849.30,71.44 849.85,71.11 C850.40,70.77 862.21,70.50 876.10,70.50 L 901.36 70.50 L 902.20 73.74 C902.82,76.11 903.78,77.15 905.78,77.62 C907.27,77.97 909.49,79.16 910.70,80.26 C913.34,82.66 915.37,82.07 917.16,78.40 C918.03,76.63 920.00,75.12 922.74,74.13 C926.91,72.62 927.01,72.64 929.79,75.30 C933.28,78.64 933.72,78.64 937.21,75.30 C939.80,72.82 940.29,72.70 943.33,73.80 C945.15,74.46 949.17,75.00 952.25,75.00 C956.86,75.00 957.97,74.66 958.46,73.13 C959.20,70.81 963.45,70.16 975.00,70.60 C986.15,71.03 986.20,71.04 986.75,73.17 C987.15,74.68 988.25,75.00 993.05,75.00 C997.07,75.00 999.36,75.50 1000.48,76.62 C1001.37,77.51 1002.19,78.07 1002.30,77.87 C1004.54,73.78 1004.94,73.50 1008.62,73.50 C1011.03,73.50 1013.19,72.81 1014.31,71.69 C1015.55,70.45 1017.27,69.98 1019.81,70.19 C1023.07,70.46 1023.51,70.82 1023.60,73.26 C1023.81,78.95 1030.18,82.41 1031.41,77.50 C1031.92,75.45 1032.65,75.00 1035.40,75.00 C1037.58,75.00 1039.23,74.32 1040.13,73.06 C1040.99,71.84 1043.25,70.87 1046.22,70.45 C1050.61,69.83 1051.03,69.96 1052.10,72.32 C1053.07,74.44 1053.55,74.67 1055.05,73.73 C1056.39,72.90 1057.52,72.92 1059.47,73.81 C1063.12,75.47 1064.69,75.31 1066.95,73.05 C1068.18,71.82 1070.51,71.01 1073.26,70.87 C1077.93,70.63 1080.00,71.39 1080.00,73.34 C1080.00,74.68 1083.50,78.00 1084.93,78.00 C1085.43,78.00 1085.99,77.53 1086.18,76.95 C1086.51,75.98 1090.74,74.57 1097.10,73.33 C1098.98,72.96 1100.48,73.54 1102.50,75.41 C1106.22,78.86 1112.07,79.04 1113.51,75.75 C1114.20,74.17 1115.52,73.40 1117.90,73.18 C1119.77,73.00 1122.24,72.24 1123.40,71.50 C1124.83,70.57 1129.08,70.12 1136.68,70.07 C1142.83,70.02 1148.45,69.79 1149.18,69.54 C1149.91,69.29 1153.20,69.65 1156.50,70.34 C1162.32,71.57 1162.50,71.70 1162.49,74.80 C1162.48,77.68 1162.78,78.00 1165.43,78.00 C1167.06,78.00 1169.39,78.95 1170.66,80.15 C1172.55,81.92 1173.21,82.07 1174.47,81.02 C1175.31,80.33 1176.00,78.66 1176.00,77.31 C1176.00,75.23 1176.41,74.91 1178.75,75.18 C1180.45,75.38 1181.88,76.36 1182.49,77.75 C1183.81,80.77 1186.00,80.61 1186.00,77.50 C1186.00,75.66 1186.53,75.00 1188.02,75.00 C1189.26,75.00 1190.42,75.97 1191.00,77.50 C1192.03,80.22 1196.00,81.04 1196.00,78.54 C1196.00,76.53 1199.63,74.75 1202.12,75.54 C1203.25,75.90 1204.63,77.50 1205.18,79.09 C1206.37,82.50 1207.52,82.77 1209.00,80.00 C1209.77,78.57 1211.09,78.00 1213.67,78.00 C1215.95,78.00 1217.75,77.36 1218.55,76.26 C1219.25,75.30 1220.65,74.51 1221.66,74.51 C1222.78,74.50 1223.62,73.65 1223.81,72.33 C1224.24,69.32 1225.68,69.02 1234.13,70.13 C1238.18,70.66 1244.88,70.96 1249.00,70.80 C1255.96,70.52 1256.57,70.66 1257.49,72.75 C1258.35,74.71 1259.22,75.00 1264.26,75.00 C1269.89,75.00 1270.07,75.08 1270.65,77.98 C1271.50,82.27 1273.00,80.66 1273.00,75.44 C1273.00,73.00 1273.34,70.97 1273.75,70.92 C1274.16,70.88 1279.60,70.69 1285.82,70.49 L 1297.15 70.13 L 1298.14 72.99 C1299.11,75.74 1299.32,75.82 1304.39,75.30 C1308.14,74.91 1310.52,75.22 1312.77,76.38 C1314.49,77.27 1316.68,78.00 1317.62,78.00 C1318.57,78.00 1320.13,78.72 1321.10,79.59 C1323.61,81.86 1327.00,80.56 1327.00,77.32 C1327.00,75.08 1327.33,74.84 1329.75,75.29 C1334.22,76.14 1339.77,78.48 1341.94,80.44 C1344.43,82.70 1346.72,81.27 1347.19,77.18 C1347.43,75.11 1348.07,74.48 1350.00,74.39 C1354.46,74.20 1355.00,74.02 1355.00,72.74 C1355.00,71.29 1364.31,68.80 1366.53,69.65 C1367.79,70.13 1368.00,65.70 1368.00,36.05 L 1368.00 152.50 L 1354.25 152.00 C1346.69,151.73 1339.98,151.16 1339.34,150.75 C1337.38,149.47 1328.33,152.37 1326.25,154.94 C1323.92,157.82 1321.72,157.26 1319.80,153.31 C1318.50,150.67 1318.08,150.52 1312.96,150.80 C1309.96,150.97 1307.07,151.53 1306.55,152.05 C1306.03,152.57 1303.84,153.00 1301.68,153.00 C1298.07,153.00 1297.80,153.19 1298.23,155.44 C1299.05,159.69 1297.54,160.75 1293.81,158.55 C1291.33,157.08 1288.49,156.58 1282.02,156.49 C1273.51,156.37 1271.27,156.00 1263.22,153.39 C1257.65,151.59 1253.56,151.63 1252.00,153.50 C1251.32,154.32 1249.78,155.00 1248.58,155.00 C1247.38,155.00 1245.91,155.49 1245.32,156.08 C1243.59,157.81 1239.66,156.72 1238.39,154.17 C1237.75,152.88 1236.81,151.41 1236.29,150.89 C1234.75,149.35 1225.43,152.25 1223.24,154.96 C1221.43,157.19 1221.06,157.27 1218.09,156.04 C1215.45,154.95 1214.21,154.94 1210.94,156.02 C1207.28,157.23 1206.80,157.16 1204.67,155.16 C1203.41,153.97 1201.85,153.00 1201.22,153.00 C1200.59,153.00 1198.50,152.25 1196.58,151.34 C1192.49,149.39 1190.00,150.63 1190.00,154.62 C1190.00,156.86 1189.65,157.00 1184.02,157.00 C1178.69,157.00 1177.86,156.72 1176.34,154.40 C1174.77,151.99 1174.25,151.84 1169.71,152.44 C1166.00,152.94 1164.18,152.69 1162.30,151.46 C1160.44,150.24 1158.47,149.97 1154.65,150.39 C1151.82,150.70 1148.50,150.97 1147.28,150.99 C1146.06,151.01 1143.98,151.44 1142.66,151.94 C1141.33,152.44 1139.86,152.48 1139.38,152.01 C1138.89,151.55 1136.71,151.02 1134.53,150.84 C1131.03,150.54 1130.40,150.83 1129.22,153.25 C1127.61,156.59 1123.61,157.00 1122.00,154.00 C1121.12,152.36 1119.91,152.00 1115.25,152.00 C1110.26,152.00 1109.31,152.33 1107.39,154.74 C1105.34,157.32 1105.01,157.40 1101.78,156.24 C1099.90,155.56 1097.65,155.00 1096.79,155.00 C1095.93,155.00 1094.48,153.85 1093.56,152.45 C1092.10,150.23 1091.29,149.93 1087.27,150.20 C1083.32,150.46 1082.41,150.93 1080.99,153.50 C1079.47,156.26 1078.90,156.50 1073.95,156.50 C1069.30,156.50 1068.40,156.18 1067.40,154.17 C1066.76,152.88 1065.81,151.41 1065.29,150.89 C1063.77,149.37 1054.19,152.29 1052.42,154.81 C1050.10,158.12 1042.66,157.94 1040.41,154.50 C1038.50,151.59 1035.96,151.33 1032.37,153.68 C1029.97,155.25 1029.61,155.25 1026.59,153.62 C1024.38,152.43 1021.68,151.98 1017.99,152.19 C1012.84,152.49 1012.58,152.64 1011.77,155.80 C1010.33,161.36 1005.50,161.00 1004.81,155.28 C1004.55,153.14 1003.67,152.46 999.67,151.29 C994.70,149.85 992.00,150.61 992.00,153.44 C992.00,154.10 990.88,155.62 989.50,156.81 C988.12,158.01 987.00,159.45 987.00,160.01 C987.00,161.23 983.02,160.50 977.88,158.33 C974.62,156.96 973.96,156.97 971.18,158.41 C969.49,159.28 966.48,160.00 964.50,160.00 C962.52,160.00 959.51,159.28 957.82,158.41 C955.04,156.97 954.38,156.96 951.12,158.33 C944.69,161.03 942.21,161.23 941.53,159.09 ZM 1368.00 254.00 L 1368.00 264.00 L 0.00 264.00 L 0.00 254.00 L 51.25 254.00 C79.44,254.00 375.20,253.95 708.50,253.90 C1041.80,253.85 1326.54,253.85 1341.25,253.90 L 1368.00 254.00 ZM 1158.67 159.33 C1157.52,158.18 1157.94,157.00 1159.50,157.00 C1160.32,157.00 1161.00,157.68 1161.00,158.50 C1161.00,160.06 1159.82,160.48 1158.67,159.33 ZM 214.00 158.58 C214.00,157.71 214.71,157.00 215.58,157.00 C217.35,157.00 217.04,159.15 215.19,159.77 C214.53,159.99 214.00,159.45 214.00,158.58 Z" fill="rgb(14,118,201)"/>
<path d="M 1368.00 0.00 L 1368.00 36.05 C1368.00,65.70 1367.79,70.13 1366.53,69.65 C1364.31,68.80 1355.00,71.29 1355.00,72.74 C1355.00,74.02 1354.46,74.20 1350.00,74.39 C1348.07,74.48 1347.43,75.11 1347.19,77.18 C1346.72,81.27 1344.43,82.70 1341.94,80.44 C1339.77,78.48 1334.22,76.14 1329.75,75.29 C1327.33,74.84 1327.00,75.08 1327.00,77.32 C1327.00,80.56 1323.61,81.86 1321.10,79.59 C1320.13,78.72 1318.57,78.00 1317.62,78.00 C1316.68,78.00 1314.49,77.27 1312.77,76.38 C1310.52,75.22 1308.14,74.91 1304.39,75.30 C1299.32,75.82 1299.11,75.74 1298.14,72.99 L 1297.15 70.13 L 1285.82 70.49 C1279.60,70.69 1274.16,70.88 1273.75,70.92 C1273.34,70.97 1273.00,73.00 1273.00,75.44 C1273.00,80.66 1271.50,82.27 1270.65,77.98 C1270.07,75.08 1269.89,75.00 1264.26,75.00 C1259.22,75.00 1258.35,74.71 1257.49,72.75 C1256.57,70.66 1255.96,70.52 1249.00,70.80 C1244.88,70.96 1238.18,70.66 1234.13,70.13 C1225.68,69.02 1224.24,69.32 1223.81,72.33 C1223.62,73.65 1222.78,74.50 1221.66,74.51 C1220.65,74.51 1219.25,75.30 1218.55,76.26 C1217.75,77.36 1215.95,78.00 1213.67,78.00 C1211.09,78.00 1209.77,78.57 1209.00,80.00 C1207.52,82.77 1206.37,82.50 1205.18,79.09 C1204.63,77.50 1203.25,75.90 1202.12,75.54 C1199.63,74.75 1196.00,76.53 1196.00,78.54 C1196.00,81.04 1192.03,80.22 1191.00,77.50 C1190.42,75.97 1189.26,75.00 1188.02,75.00 C1186.53,75.00 1186.00,75.66 1186.00,77.50 C1186.00,80.61 1183.81,80.77 1182.49,77.75 C1181.88,76.36 1180.45,75.38 1178.75,75.18 C1176.41,74.91 1176.00,75.23 1176.00,77.31 C1176.00,78.66 1175.31,80.33 1174.47,81.02 C1173.21,82.07 1172.55,81.92 1170.66,80.15 C1169.39,78.95 1167.06,78.00 1165.43,78.00 C1162.78,78.00 1162.48,77.68 1162.49,74.80 C1162.50,71.70 1162.32,71.57 1156.50,70.34 C1153.20,69.65 1149.91,69.29 1149.18,69.54 C1148.45,69.79 1142.83,70.02 1136.68,70.07 C1129.08,70.12 1124.83,70.57 1123.40,71.50 C1122.24,72.24 1119.77,73.00 1117.90,73.18 C1115.52,73.40 1114.20,74.17 1113.51,75.75 C1112.07,79.04 1106.22,78.86 1102.50,75.41 C1100.48,73.54 1098.98,72.96 1097.10,73.33 C1090.74,74.57 1086.51,75.98 1086.18,76.95 C1085.99,77.53 1085.43,78.00 1084.93,78.00 C1083.50,78.00 1080.00,74.68 1080.00,73.34 C1080.00,71.39 1077.93,70.63 1073.26,70.87 C1070.51,71.01 1068.18,71.82 1066.95,73.05 C1064.69,75.31 1063.12,75.47 1059.47,73.81 C1057.52,72.92 1056.39,72.90 1055.05,73.73 C1053.55,74.67 1053.07,74.44 1052.10,72.32 C1051.03,69.96 1050.61,69.83 1046.22,70.45 C1043.25,70.87 1040.99,71.84 1040.13,73.06 C1039.23,74.32 1037.58,75.00 1035.40,75.00 C1032.65,75.00 1031.92,75.45 1031.41,77.50 C1030.18,82.41 1023.81,78.95 1023.60,73.26 C1023.51,70.82 1023.07,70.46 1019.81,70.19 C1017.27,69.98 1015.55,70.45 1014.31,71.69 C1013.19,72.81 1011.03,73.50 1008.62,73.50 C1004.94,73.50 1004.54,73.78 1002.30,77.87 C1002.19,78.07 1001.37,77.51 1000.48,76.62 C999.36,75.50 997.07,75.00 993.05,75.00 C988.25,75.00 987.15,74.68 986.75,73.17 C986.20,71.04 986.15,71.03 975.00,70.60 C963.45,70.16 959.20,70.81 958.46,73.13 C957.97,74.66 956.86,75.00 952.25,75.00 C949.17,75.00 945.15,74.46 943.33,73.80 C940.29,72.70 939.80,72.82 937.21,75.30 C933.72,78.64 933.28,78.64 929.79,75.30 C927.01,72.64 926.91,72.62 922.74,74.13 C920.00,75.12 918.03,76.63 917.16,78.40 C915.37,82.07 913.34,82.66 910.70,80.26 C909.49,79.16 907.27,77.97 905.78,77.62 C903.78,77.15 902.82,76.11 902.20,73.74 L 901.36 70.50 L 876.10 70.50 C862.21,70.50 850.40,70.77 849.85,71.11 C849.30,71.44 848.60,73.58 848.29,75.86 C847.82,79.39 847.39,80.00 845.37,80.00 C842.35,80.00 842.25,77.43 845.23,76.65 C849.13,75.63 845.53,73.59 839.74,73.54 C835.95,73.51 834.14,73.02 833.19,71.75 C832.40,70.69 830.56,70.00 828.53,70.00 C823.19,70.00 822.01,70.80 822.64,73.97 C823.30,77.23 821.24,79.17 819.82,76.64 C818.74,74.72 810.32,74.45 803.00,76.11 C802.60,76.19 802.22,76.28 801.86,76.36 C795.83,77.73 793.95,78.16 793.18,77.42 C792.79,77.05 792.69,76.37 792.46,75.36 C791.81,72.38 791.52,70.98 790.67,70.42 C789.92,69.93 788.73,70.10 786.44,70.43 L 786.24 70.46 C783.23,70.90 780.91,71.90 779.89,73.22 C778.63,74.84 777.65,75.13 775.39,74.58 C773.80,74.20 771.15,73.62 769.50,73.31 C767.85,73.00 766.05,72.40 765.50,71.97 C764.95,71.54 762.38,70.87 759.78,70.48 C755.35,69.83 754.98,69.95 753.87,72.39 C752.94,74.43 751.96,75.00 749.41,75.00 C747.61,75.00 745.47,75.68 744.64,76.50 C742.59,78.56 741.64,78.39 740.49,75.75 C739.70,73.96 738.69,73.50 735.50,73.50 C731.62,73.50 731.50,73.60 731.50,76.88 C731.50,80.97 729.01,83.09 726.58,81.07 C725.71,80.35 724.99,78.35 724.98,76.63 C724.98,74.91 724.64,73.00 724.23,72.38 C723.77,71.68 717.89,71.09 708.34,70.79 C694.50,70.36 693.04,70.48 691.60,72.16 C689.66,74.41 684.45,74.61 683.62,72.45 C683.15,71.24 681.68,70.97 676.76,71.20 L 670.50 71.50 L 670.19 75.75 C669.93,79.44 669.58,80.00 667.56,80.00 C666.18,80.00 664.56,78.98 663.59,77.50 C662.46,75.78 661.04,75.00 659.04,75.00 C657.43,75.00 655.84,74.55 655.50,74.00 C654.60,72.55 646.16,72.80 641.50,74.42 C639.02,75.28 636.90,76.89 635.92,78.65 C633.87,82.34 631.09,82.28 629.01,78.50 C626.78,74.47 622.00,73.66 622.00,77.33 C622.00,79.56 620.39,81.00 617.89,81.00 C617.37,81.00 616.52,79.88 616.00,78.50 C614.57,74.74 610.78,75.23 608.37,79.50 C607.18,81.61 605.09,81.79 599.00,80.31 C596.40,79.67 595.12,78.60 594.04,76.15 C592.87,73.53 592.10,72.94 590.29,73.29 C589.03,73.53 588.00,73.35 588.00,72.90 C588.00,69.41 576.18,69.60 575.26,73.11 C574.69,75.29 572.09,75.52 567.39,73.82 C563.18,72.30 561.22,73.79 560.81,78.83 C560.53,82.17 560.23,82.50 557.50,82.50 C555.06,82.50 554.44,82.04 554.17,80.00 C553.66,76.23 552.42,75.51 546.20,75.37 C519.35,74.77 520.27,74.88 519.05,72.21 C517.94,69.78 517.73,69.73 509.36,70.26 C504.66,70.55 500.31,71.29 499.70,71.90 C498.22,73.38 493.70,73.30 492.15,71.75 C490.39,69.99 466.99,70.40 465.87,72.21 C465.24,73.22 464.83,73.23 463.84,72.24 C461.09,69.49 459.70,70.78 460.34,75.50 C460.84,79.09 460.66,80.00 459.48,80.00 C458.50,80.00 458.00,78.99 458.00,77.02 C458.00,74.66 457.47,73.91 455.45,73.40 C454.05,73.05 452.63,73.03 452.30,73.36 C451.97,73.70 451.19,73.28 450.58,72.44 C449.39,70.81 443.59,69.68 440.86,70.55 C439.95,70.83 438.99,71.91 438.72,72.95 C438.31,74.52 437.08,74.88 431.04,75.16 C427.08,75.35 423.11,75.09 422.22,74.59 C421.05,73.93 420.31,74.19 419.55,75.50 C416.23,81.25 411.62,82.75 410.04,78.60 C408.73,75.16 407.46,74.71 404.08,76.46 C402.44,77.31 400.23,78.00 399.16,78.00 C398.10,78.00 396.49,79.12 395.59,80.50 C394.04,82.87 392.02,83.46 389.29,82.35 C388.36,81.97 388.34,81.42 389.23,80.01 C390.62,77.77 388.80,75.00 385.93,75.00 C384.93,75.00 383.53,74.17 382.81,73.16 C381.75,71.67 379.28,71.11 370.00,70.28 C356.61,69.08 354.54,69.62 355.52,74.07 C356.02,76.35 355.81,77.00 354.58,77.00 C353.40,77.00 353.06,76.16 353.25,73.75 C353.49,70.61 353.36,70.49 349.37,70.20 C346.50,69.99 344.73,70.42 343.53,71.61 C342.20,72.95 340.34,73.27 335.17,73.09 C331.51,72.95 328.06,72.49 327.51,72.05 C325.77,70.67 308.27,69.73 287.50,69.90 C268.85,70.06 267.41,70.20 266.13,72.03 C264.44,74.46 263.22,74.51 260.72,72.25 C258.91,70.61 252.44,70.49 157.45,70.36 L 56.11 70.21 L 55.71 72.86 L 55.30 75.50 L 55.15 72.75 C54.98,69.64 53.00,68.93 53.00,71.98 C53.00,73.30 51.60,74.67 48.82,76.09 C44.81,78.14 44.58,78.15 43.32,76.42 C42.59,75.43 41.99,73.69 41.98,72.56 C41.97,71.05 41.74,70.86 41.12,71.83 C40.44,72.91 40.16,72.86 39.67,71.59 C39.23,70.44 37.67,70.02 33.79,70.03 C30.88,70.03 27.38,70.02 26.00,70.00 C24.62,69.98 18.55,70.01 12.50,70.06 C6.45,70.11 1.16,70.12 0.75,70.08 C0.34,70.03 0.00,54.25 0.00,35.00 L 0.00 0.00 Z" fill="rgb(16,129,220)"/>
<path d="M 19.25 683.30 L 0.00 682.96 L 0.00 613.98 L 25.20 614.44 L 27.19 611.72 C29.15,609.02 29.27,609.00 41.02,609.00 L 52.86 609.00 L 55.00 612.00 C56.81,614.55 57.79,615.00 61.50,615.00 C65.21,615.00 66.19,614.55 68.00,612.00 C70.58,608.37 72.24,608.22 74.67,611.41 C76.01,613.17 77.84,613.98 81.50,614.43 C86.80,615.07 87.84,614.70 89.61,611.50 C90.68,609.57 91.90,609.49 122.83,609.24 L 154.94 608.97 L 156.58 611.49 C158.15,613.87 158.70,614.00 167.50,614.00 C176.33,614.00 176.85,613.88 178.44,611.45 C179.92,609.19 180.68,608.93 185.20,609.20 C189.06,609.43 190.56,609.98 191.40,611.50 C193.03,614.47 194.08,614.97 198.68,614.98 C202.17,615.00 203.21,614.52 204.94,612.09 C206.73,609.57 207.86,609.09 213.26,608.53 C216.69,608.18 222.43,607.93 226.00,607.98 C229.57,608.03 253.64,608.39 279.49,608.78 L 326.47 609.50 L 327.85 612.36 L 329.22 615.23 L 341.86 614.53 C353.66,613.88 354.62,613.68 356.33,611.42 C358.00,609.22 358.88,609.00 366.06,609.00 C373.38,609.00 374.07,609.18 375.59,611.50 C377.72,614.75 380.88,614.68 383.55,611.33 C386.04,608.21 388.54,608.65 389.99,612.47 C390.91,614.90 391.28,615.00 399.41,615.00 C407.66,615.00 407.91,614.93 410.00,612.00 C412.63,608.31 414.27,608.22 416.76,611.65 C418.59,614.15 419.16,614.30 427.46,614.35 C435.87,614.40 436.31,614.29 438.20,611.70 C440.64,608.35 442.30,608.29 444.67,611.45 C446.03,613.28 447.82,614.08 451.64,614.57 C456.58,615.20 456.83,615.12 458.15,612.36 L 459.53 609.50 L 484.47 609.50 L 485.79 612.25 C487.07,614.93 487.33,615.00 495.49,615.00 C503.67,615.00 503.91,614.93 506.02,611.97 L 508.18 608.94 L 520.34 609.22 C531.86,609.49 532.55,609.62 533.49,611.75 C534.34,613.70 535.22,614.00 540.12,614.00 C545.07,614.00 545.98,613.69 547.44,611.45 C548.92,609.19 549.68,608.93 554.20,609.20 C558.06,609.43 559.56,609.98 560.40,611.50 C562.06,614.51 563.08,614.97 568.18,614.98 C572.25,615.00 573.14,614.61 575.00,612.00 L 577.14 609.00 L 588.55 609.00 C599.61,609.00 600.00,609.08 601.59,611.50 C603.05,613.72 603.92,614.00 609.38,614.00 C614.79,614.00 615.64,613.73 616.51,611.75 C617.40,609.73 618.31,609.47 625.50,609.20 C633.19,608.91 633.59,609.01 635.70,611.65 C637.79,614.27 638.31,614.40 646.56,614.40 C654.83,614.40 655.32,614.27 657.20,611.70 L 659.17 609.00 L 729.95 609.00 L 731.59 611.50 C733.72,614.75 737.28,614.75 739.41,611.50 C741.03,609.02 741.16,609.00 755.94,609.00 L 770.83 609.00 L 772.73 611.61 C774.56,614.12 775.07,614.23 786.82,614.66 L 799.01 615.11 L 799.99 612.53 C801.46,608.65 803.94,608.19 806.45,611.33 C809.12,614.68 812.28,614.75 814.41,611.50 C815.79,609.39 816.82,609.00 821.00,609.00 C825.18,609.00 826.21,609.39 827.59,611.50 C829.60,614.57 833.54,614.86 834.29,612.01 C835.23,608.42 838.04,608.37 840.92,611.90 C843.45,615.00 843.75,615.10 848.74,614.44 C852.65,613.92 854.32,613.16 855.49,611.38 C856.98,609.10 857.55,609.00 868.50,609.00 C879.61,609.00 880.00,609.07 881.59,611.50 C883.72,614.75 887.28,614.75 889.41,611.50 C890.94,609.16 891.59,609.00 899.45,609.00 C907.66,609.00 907.92,609.07 910.00,612.00 C911.81,614.55 912.79,615.00 916.50,615.00 C920.21,615.00 921.19,614.55 923.00,612.00 L 925.14 609.00 L 982.83 609.00 L 986.69 614.30 L 1009.01 614.29 L 1031.33 614.27 L 1033.25 611.64 C1035.04,609.18 1035.69,609.00 1043.02,609.00 C1050.64,609.00 1050.93,609.09 1053.05,612.08 C1055.15,615.02 1055.47,615.13 1060.37,614.49 C1064.13,614.00 1065.99,613.17 1067.33,611.41 L 1069.17 609.00 L 1112.83 609.00 L 1114.67 611.43 C1116.07,613.29 1117.81,614.01 1122.15,614.53 C1127.64,615.19 1127.83,615.13 1129.16,612.35 L 1130.53 609.50 L 1166.23 609.24 L 1201.94 608.97 L 1203.58 611.49 C1205.03,613.69 1205.94,614.00 1211.00,614.00 C1216.05,614.00 1216.97,613.69 1218.41,611.50 L 1220.05 609.00 L 1331.86 609.00 L 1334.00 612.00 C1336.69,615.78 1338.31,615.78 1341.00,612.00 L 1343.14 609.00 L 1368.00 609.00 L 1368.00 683.50 L 1337.25 683.32 C1307.97,683.15 1191.27,682.90 1139.00,682.89 C1113.46,682.89 1066.77,682.87 1032.50,682.84 C1011.89,682.82 962.50,683.11 951.00,683.32 C947.42,683.38 941.35,683.26 937.50,683.05 C930.57,682.67 871.23,682.67 824.00,683.05 C810.53,683.16 796.80,683.24 793.50,683.24 C770.65,683.21 740.77,683.27 737.00,683.35 C734.53,683.40 727.78,683.28 722.00,683.07 C713.92,682.78 565.18,682.63 550.50,682.90 C548.85,682.93 507.45,682.94 458.50,682.93 C379.90,682.91 279.88,682.99 270.00,683.09 C266.05,683.12 188.04,683.31 178.00,683.30 C174.43,683.30 145.40,683.18 113.50,683.03 C81.60,682.89 51.67,682.96 47.00,683.20 C42.33,683.44 29.84,683.49 19.25,683.30 Z" fill="rgb(6,23,40)"/>
<path d="M 0.00 445.50 L 0.00 442.00 L 8.25 441.91 C12.79,441.86 320.59,441.64 692.25,441.42 L 1368.00 441.02 L 1368.00 445.01 L 1368.00 449.00 L 684.00 449.00 L 0.00 449.00 L 0.00 445.50 ZM -0.00 386.25 L -0.00 382.50 L 600.25 382.75 C930.39,382.89 1238.19,383.00 1284.25,383.00 L 1368.00 383.00 L 1368.00 386.50 L 1368.00 390.00 L 684.00 390.00 L 0.00 390.00 L -0.00 386.25 ZM 485.75 331.25 L -0.00 331.00 L -0.00 327.00 L 0.00 323.00 L 684.00 323.00 L 1368.00 323.00 L 1368.00 327.00 L 1368.00 331.00 L 1254.75 331.01 C1192.46,331.02 1103.25,331.13 1056.50,331.26 C1009.75,331.39 752.91,331.39 485.75,331.25 ZM 0.00 268.00 L 0.00 264.00 L 684.00 264.00 L 1368.00 264.00 L 1368.00 268.00 L 1368.00 272.00 L 684.00 272.00 L 0.00 272.00 L 0.00 268.00 Z" fill="rgb(247,253,253)"/>
</g>
</svg>